<?xml version="1.0" encoding="utf-8"?>
<!-- Generator: Adobe Illustrator 19.2.1, SVG Export Plug-In . SVG Version: 6.00 Build 0)  -->
<svg version="1.1" id="layer" xmlns="http://www.w3.org/2000/svg" xmlns:xlink="http://www.w3.org/1999/xlink" x="0px" y="0px"
	 viewBox="0 0 652 652" style="enable-background:new 0 0 652 652;" xml:space="preserve">
<style type="text/css">
	.st0{fill:#33D9DD;}
	.st1{fill:#373737;}
	.st2{fill:#0062FE;}
	.st3{fill:#0C9EEF;}
	.st4{fill:#0676FC;}
	.st5{fill:#0080F9;}
	.st6{fill:#20BCE6;}
	.st7{fill:#0290F3;}
	.st8{fill:#0185F7;}
	.st9{fill:#018AF5;}
	.st10{fill:#2FD5DD;}
	.st11{fill:#0166FE;}
	.st12{fill:#0797F1;}
	.st13{fill:#24C3E4;}
	.st14{fill:#016AFE;}
	.st15{fill:#067CFA;}
	.st16{fill:#17ADEB;}
	.st17{fill:#28C7E3;}
	.st18{fill:#24C1E5;}
	.st19{fill:#36E3DA;}
	.st20{fill:#32DCDC;}
	.st21{fill:#2DD3DE;}
	.st22{fill:#2ED0E0;}
	.st23{fill:#21BCE6;}
	.st24{fill:#22BFE5;}
	.st25{fill:#1CB4E8;}
	.st26{fill:#24B1EC;}
	.st27{fill:#32D7DD;}
	.st28{fill:#31C8E4;}
	.st29{fill:#10A3EE;}
	.st30{fill:#35BDEA;}
	.st31{fill:#14A7ED;}
	.st32{fill:#0677FD;}
	.st33{fill:#39AFF1;}
	.st34{fill:#1EB7E7;}
	.st35{fill:#46C8E9;}
	.st36{fill:#33B4ED;}
	.st37{fill:#3CC2E9;}
	.st38{fill:#E1F7FA;}
	.st39{fill:#34DBDC;}
	.st40{fill:#2BCFE0;}
	.st41{fill:#40AFF2;}
	.st42{fill:#E5F1FE;}
	.st43{fill:#3DCBE6;}
	.st44{fill:#4FCCEA;}
	.st45{fill:#59D0EA;}
	.st46{fill:#D1E8FD;}
	.st47{fill:#79D8EE;}
	.st48{fill:#47AFF4;}
	.st49{fill:#2AADEF;}
	.st50{fill:#D8F4F9;}
	.st51{fill:#30ADF0;}
	.st52{fill:#1E86FD;}
	.st53{fill:#AED6FC;}
	.st54{fill:#D9EBFE;}
	.st55{fill:#52B2F5;}
	.st56{fill:#7FDCED;}
	.st57{fill:#98CCFB;}
	.st58{fill:#63D3EB;}
	.st59{fill:#4ACEE7;}
	.st60{fill:#9EE0F3;}
	.st61{fill:#2DBAE9;}
	.st62{fill:#D8F0FB;}
	.st63{fill:#E2F4FC;}
	.st64{fill:#65D4EB;}
	.st65{fill:#84DAF0;}
	.st66{fill:#28B8E9;}
	.st67{fill:#93DDF2;}
	.st68{fill:#8CE0EF;}
	.st69{fill:#5AD1EA;}
	.st70{fill:#71D6ED;}
	.st71{fill:#BEE8F8;}
	.st72{fill:#5AB4F6;}
	.st73{fill:#2E8EFC;}
	.st74{fill:#71BCF8;}
	.st75{fill:#67B9F8;}
	.st76{fill:#CCF1F7;}
	.st77{fill:#C5EBF9;}
	.st78{fill:#8BDBF0;}
	.st79{fill:#52CFE8;}
	.st80{fill:#C3E0FC;}
	.st81{fill:#9CCDFC;}
	.st82{fill:#59A7FC;}
	.st83{fill:#CEEDFA;}
	.st84{fill:#A4E1F4;}
	.st85{fill:#73D9EC;}
	.st86{fill:#9DE5F1;}
	.st87{fill:#AED5FC;}
	.st88{fill:#ADE4F6;}
	.st89{fill:#B4E5F6;}
	.st90{fill:#79BFF8;}
	.st91{fill:#499EFB;}
	.st92{fill:#C9E4FC;}
	.st93{fill:#B8ECF5;}
	.st94{fill:#3D97FB;}
	.st95{fill:#D7EBFD;}
	.st96{fill:#A7E7F2;}
	.st97{fill:#C1EEF6;}
	.st98{fill:#93E2F0;}
	.st99{fill:#70B4FC;}
	.st100{fill:#AFEAF3;}
	.st101{fill:#82C3F9;}
	.st102{fill:#BBDDFC;}
	.st103{fill:#E5F2FE;}
	.st104{fill:#B6DAFC;}
	.st105{fill:#EEFAFC;}
	.st106{fill:#63ACFC;}
	.st107{fill:#7ABAFC;}
	.st108{fill:#8DC5FB;}
	.st109{fill:#F1F9FD;}
	.st110{fill:#86C0FB;}
	.st111{fill:#1E82FE;}
	.st112{fill:#006AFE;}
	.st113{fill:#0167FE;}
	.st114{fill:#2AB3EB;}
	.st115{fill:#69D4EC;}
	.st116{fill:#90C8FA;}
	.st117{fill:#69D5EB;}
</style>
<g id="Layer_2">
	<g id="Layer_1-2">
		<g id="pkI8Hz.tif">
			<path class="st0" d="M96.4,265.8c0-3.7,0-7.4-0.1-11.2c0-1.7,1-2.6,2.2-3.5h1.5c1.7,1,2.2,2.4,2.2,4.3c-0.1,4.5,0,9,0,13.5
				c0,0.9,0.2,1.9-0.5,2.7c-1.5-1.7-0.5-3.7-0.8-5.5c-0.1-2.4,0-4.9,0.5-7.3c-0.1,1.8-0.4,2-3.6,0.9c-0.2,1.3,0.1,2.6-0.1,3.9
				C97.5,264.4,97.9,265.6,96.4,265.8z"/>
			<path class="st1" d="M608.1,303.4c3.1-0.8,6.3-0.1,9.5-0.4c1-0.1,2.1-0.1,3.1-0.1v64.3c-3.4,0-6.8-0.1-10.1-0.1
				c-0.8,0-1.7,0.4-2.5-0.4c1.7-1.4,3.7-0.8,5.5-0.9c6.2-0.1,5.7,0.5,5.7-5.9c0-16.9,0-33.8,0-50.7c0-0.9,0-1.7,0-2.6
				c0.1-1.8-0.9-2.5-2.5-2.5c-1.7,0-3.7,0-5.5,0C610.1,304.2,608.9,304.4,608.1,303.4z"/>
			<path d="M620.2,305.5c0-1.5-0.4-2-1.9-2c-3.4,0.1-6.8,0-10.2-0.1c-0.7,0.7-0.3,1.7-0.3,2.5c0,7,0,14-0.1,21
				c0,0.7,0.4,1.5-0.5,2.1c-1.1-3.2-3.5-5.9-6.7-7.1c-7.4-3-15.9,0-19.7,7c-1.5,2.9-2.4,6-2.8,9.2c-0.8,7.5-0.8,15,2.9,21.9
				c4.4,8.4,16.2,10.8,23,4.7c1.5-1.5,2.7-3.3,3.5-5.3c0.6,2.7-0.2,5.1,0.6,7.3c3.4,0,6.8-0.1,10.2-0.1c1.5,0,2-0.5,1.9-1.9
				C620.1,345,620.1,325.2,620.2,305.5z M607.7,349.6c0,5.5-3.2,8.4-8.8,8c-3.9-0.1-7.2-3-7.7-6.9c-0.7-4.1-0.7-8.3-0.1-12.5
				c1-6.7,8.5-9.6,14-5.5c1.6,1,2.5,2.8,2.5,4.6c0,2.3,0,4.7,0,7l0,0C607.7,346.1,607.7,347.9,607.7,349.6z"/>
			<path d="M409.4,337.1c0.1,2.7-0.2,5.6,0.4,8.6c1.1,5.9,4.5,9.5,10.1,10.5s10.6-1.3,13.3-6.5c1-1.9,1.6-2.1,3.3-1
				c2.3,1.5,4.6,2.8,7,4c1.2,0.6,1.2,1.2,0.6,2.4c-5,9.7-15.3,14.5-27.2,12.6c-9.6-1.6-16.1-6.8-19.2-16
				c-3.5-10.7-3.5-21.5,1.2-31.8c4.4-9.5,13.5-14.5,23.9-14.1c9.2,0.3,16.3,3.8,20.8,12.1c0.8,1.4,1,2.3-0.9,3.1
				c-2.7,1.2-5.2,2.7-7.9,4.1c-0.8,0.4-1.5,0.9-2-0.4c-2.3-6.8-9-8-14.6-6.6c-5.6,1.4-8.9,6.3-9,12.9
				C409.3,332.8,409.4,334.8,409.4,337.1z"/>
			<path d="M358.5,316.5c-6,12.1-12.7,23.8-19.4,36c-6.6-12.2-13.3-23.9-19.9-35.9v3c0,14.9,0,29.8,0,44.7c0,1.9-0.2,2.8-2.5,2.7
				c-4.7-0.2-4.7,0-4.7-4.8c0-17.7,0-35.4,0-53.1c0-1.9,0.4-2.5,2.4-2.5c7.1,0.1,7.1,0,10.5,6.3l13.8,25.8c0.1,0.1,0.1,0.1,0.2,0.2
				c0.9,0,0.9-0.9,1.2-1.4c5.1-9.5,10.2-19,15.3-28.5c0.9-1.6,1.8-2.6,3.8-2.3c2.2,0.3,5.1-0.9,6.5,0.5s0.4,4.3,0.4,6.5
				c0,16.8,0,33.6,0.1,50.5c0,2.2-0.4,3-2.8,2.9c-4.4-0.2-4.4,0-4.4-4.4v-45.9L358.5,316.5z"/>
			<path d="M289,335.9c-0.2-0.5-1.4,0.1-1-1c2.3-0.7,4.3-2,5.8-3.8c4.8-6,3.1-17.2-3.3-21.5c-3.2-2-6.9-3-10.7-2.9
				c-7.3,0-14.6,0.1-22-0.1c-1.9,0-2.3,0.6-2.3,2.4c0.1,11.4,0,22.8,0,34.2c0,7.2,0,14.5,0,21.7c0,1.1-0.2,2.1,1.5,2.1
				c9.1-0.1,18.3,0.1,27.4-0.3c7.2-0.3,12.7-6.3,13.8-14.1C299.5,344.5,296.4,338.8,289,335.9z M262.9,314.7c0-1.1,0.4-1.5,1.5-1.5
				c5.6,0.1,11.1-0.1,16.7,0.1c4.4,0.2,7,2.7,7.6,7.1c0.2,1.7,0.2,3.5,0.1,5.2c-0.5,4.1-3.3,6.7-7.5,7c-2.9,0.2-5.7,0-8.6,0v0.1
				c-2.7,0-5.4,0-8.1,0c-1.2,0-1.7-0.3-1.7-1.6C262.9,325.7,262.9,320.2,262.9,314.7z M290.8,352.3c-0.4,4.8-3.1,7.9-7.9,8.1
				c-6.2,0.3-12.3,0.1-18.5,0.2c-1.2,0-1.5-0.5-1.4-1.6c0.1-3.1,0-6.3,0-9.4c0-3,0.1-5.9,0-8.9c0-1.3,0.3-1.8,1.7-1.8
				c5.6,0.1,11.3-0.1,17,0.1c5.6,0.1,8.7,3.1,9.2,8.8C290.9,349.3,290.9,350.8,290.8,352.3L290.8,352.3z"/>
			<path d="M517.7,334.3c-2.8-8.4-9.6-13.3-18.7-13.6c-10-0.3-17.1,4.1-20.4,12.7c-2.1,5.8-2.5,12-1.2,18
				c2.3,11.4,13.4,18.8,24.8,16.5c2.8-0.6,5.5-1.7,7.8-3.3c7.2-4.9,8.9-12.2,9.2-20.3C519.3,340.9,518.7,337.6,517.7,334.3z
				 M505.7,351.6c-0.7,4.1-3.6,6.4-7.9,6.4c-4.1,0-6.9-2.3-7.5-6.5c-0.6-4.8-0.6-9.6,0-14.3c0.6-4.2,3.7-6.5,7.9-6.4
				c4.1,0.1,6.8,2.4,7.5,6.6c0.5,2.5,0.2,5,0.3,8.4C506.1,347.6,506,349.6,505.7,351.6z"/>
			<path d="M555.2,359.7c-2.1,3.6-4.5,6.6-8.7,7.7c-8.6,2.3-15.6-1.6-17.8-10.2c-0.6-2.5-0.8-5-0.8-7.5c0-8.6,0-17.3,0-25.9
				c0-1.6,0.2-2.3,2.1-2.2c2.9,0.2,5.7,0.2,8.6,0c1.7-0.1,2.2,0.5,2.1,2.2c-0.1,7.9,0,15.7,0,23.5c0,1,0,2.1,0.1,3.1
				c0.2,4.7,2.6,7.4,6.8,7.2c4.3-0.3,7.9-2.6,7.8-7.6c-0.2-8.7,0-17.5-0.1-26.1c0-1.9,0.5-2.4,2.3-2.3c3,0.2,5.9,0.1,8.9,0
				c1.3,0,1.6,0.4,1.6,1.6c0,14,0,28,0,42.1c0,1.4-0.5,1.7-1.8,1.7c-3-0.1-6.1-0.1-9.1,0c-1.3,0-1.9-0.4-1.8-1.7
				C555.3,363.4,555.2,361.6,555.2,359.7z"/>
			<path d="M466.2,330.2c0,8.2,0.1,16.4-0.1,24.6c0,2,0.6,2.7,2.5,2.4c2.8-0.5,3.8,0.7,3.3,3.3c0,0.4,0,0.9,0,1.3
				c0,5.4,0,5.4-5.3,5.2c-1.6,0-3.1-0.1-4.7-0.4c-4.2-0.7-7.5-4-8.1-8.2c-0.3-1.7-0.5-3.4-0.5-5.2c0-15.8,0-31.7-0.1-47.5
				c0-2,0.4-2.8,2.5-2.6c2.7,0.2,5.4,0.2,8.1,0c1.7-0.1,2.4,0.4,2.3,2.3C466.2,313.7,466.2,321.9,466.2,330.2z"/>
			<path d="M234,337c0,7.3,0,14.6,0,21.9c0,1.6,0.4,2.2,2.1,2c1-0.1,2.1,0.1,3.1,0c2.7-0.4,3.5,0.6,3.4,3.3c-0.1,2.3-0.5,3-2.9,2.9
				c-6.3-0.2-12.7-0.1-19.1,0c-1.7,0-2.6-0.4-2.3-2.3c0.1-0.6,0.1-1.2,0-1.8c-0.2-1.5,0.2-2.2,1.9-2.1c1.6,0.2,3.1-0.1,4.7,0.1
				c1.6,0.1,1.9-0.5,1.9-2c0-14.8,0-29.6,0-44.4c0-1.3-0.3-1.9-1.7-1.8c-1.2,0.1-2.5-0.1-3.6,0c-2.5,0.4-3.2-0.4-3.2-3
				c0-2.6,0.6-3.2,3.2-3.1c6.3,0.2,12.5,0.1,18.8,0c1.8,0,2.6,0.4,2.3,2.3c-0.1,0.8-0.1,1.6,0,2.4c0.1,1.2-0.4,1.5-1.5,1.5
				c-1.6-0.1-3.3,0.1-5-0.1s-2.1,0.4-2,2C234,322.2,234,329.6,234,337z"/>
			<path class="st2" d="M51.3,389.8c-11.8-1.3-20.4-7.3-26.1-17.6c0.2-1.7,1.4-0.8,2-0.6c1.5,0.6,2.9,1.4,4.2,2.3
				c-0.1-0.6-1.2-1.4,0.1-1.9c4.9,6.2,11,10.4,18.8,12c1,0.8,2.2-0.1,3.2,0.5c-0.1,1.3-1.2,0.9-2,1.1c0.1-0.1,0.3,0,0.4,0.1
				c3.4,3.1,7.6,3.1,11.8,2.9c0.6,0,1.2,0,1.8,0.3c0.3,0.1,0.5,0.4,0.6,0.6c0,0.3-0.3,0.6-0.6,0.6c0,0,0,0,0,0
				C60.9,389.9,56.1,390.2,51.3,389.8z"/>
			<path class="st3" d="M41.8,306.6c-0.8,0-1.7-0.3-2.3-0.8L27,298.6c-1.8-1.1-3.2-2.5-1.9-4.6c1.2-2.2,3-1.6,4.7-0.6
				c4.3,2.5,8.6,4.9,12.9,7.4c1.4,0.8,2.3,2,1.8,3.7C44.3,305.8,43.1,306.7,41.8,306.6z"/>
			<path class="st4" d="M53.5,384.6c-1-0.3-2.2,0.4-3.1-0.6c12.5,0.5,25,0.1,37.5,0.3c0.9,0,1.9,0.1,2.8,0.2
				c1.6,0.8,3.3,0.1,4.9,0.4c0.7,0.2,1.4,0.6,2,1.2c2.3,1.9,4.9,3.1,8,2.5c0.9,0.1,1.9-0.1,2.4,1c-0.6,0.9-1.6,0.5-2.4,0.5
				c-3.7,0-7.4,0-11.1,0c-0.8-0.2-1.5-0.3-2.3-0.2c-3.9,0.4-7.4-0.1-10.3-3.1c-0.9-0.9-2.1-0.7-3.2-0.8c-8-0.6-16-0.5-24-0.6
				C54.3,385.2,53.8,384.9,53.5,384.6z"/>
			<path class="st5" d="M95.9,385c-1.7-0.3-3.6,0.7-5.2-0.6c6.8-0.2,13.6-0.2,20.4,0c1.9,0.7,3.9,0.3,5.9,0.3
				c1.2-0.1,2.4,0.3,3.4,1.1c1.9,1.9,4.6,2.9,7.3,2.7c0.7-0.1,2.4-0.6,2,1.4c-6.5,0-13,0.2-19.5-0.2c-0.8,0.1-1.6-0.1-2.2-0.5h-2.6
				C102.4,387.4,99.5,385.4,95.9,385z"/>
			<path class="st6" d="M64.1,270.4c1.4,2.3,2.8,4.6,4.1,6.9c1,1.7,0.9,3.5-0.9,4.5c-1.8,1-3.3,0.1-4.3-1.6c-2-3.6-4-7.1-6-10.7
				c0.5-2.1,1.9-1.2,2.9-0.8C61.4,269.3,62.8,269.9,64.1,270.4z"/>
			<path class="st7" d="M135.7,384.5c5.5-0.1,11-1.1,16.1-3.1c2.8,0.1,4.7,1.6,4.8,3.6c-3.4,2.3-7.4,3.8-11.5,4.4
				c-0.1-0.2-0.1-0.5,0.1-0.7c0.3-0.2,0.6-0.2,1.5-0.2c-1.3,0-2.5-0.6-3.3-1.5c-1.3-1.4-3.3-2-5.2-1.5
				C137.3,385.7,136,386.2,135.7,384.5z"/>
			<path class="st8" d="M129.9,389.7c-0.6-0.5-1.4-0.7-2.2-0.4c-2.8,0.5-5.7-0.5-7.6-2.6c-1.5-1.6-3.2-1.6-5.1-1.6
				c-1.3,0-2.8,0.6-3.9-0.5c4.4-0.2,8.7-0.2,13.1,0c0.2,0.3,0.5,0.4,0.9,0.3c3.7-0.4,7.1,0.1,9.9,3c1,1.1,2.6,0.6,4,0.7
				c1.1,0.1,2.5-0.5,3,1.2l-1.4,0.1C137,390.2,133.5,390.2,129.9,389.7z"/>
			<path class="st9" d="M142,389.7c-0.6-0.5-1.4-0.7-2.2-0.5c-2.9,0.4-5.4-0.2-7.4-2.5c-1.5-1.7-3.4-1.9-5.6-1.7
				c-0.9,0.1-1.9,0.4-2.6-0.6c3.8-0.2,7.7-0.2,11.5,0c0.3,0.6,1,0.8,1.6,0.5c3.5-1.5,5.6,0.6,8.1,2.5c1.5,1.1,0.2,1.3-0.2,1.8
				C144.2,389.8,143.1,389.9,142,389.7z"/>
			<path class="st10" d="M171.2,298.6l-7.3,4.2c-3.2-0.4-4.4-1.3-4.9-3.7c2.5-1.8,5.2-3.3,8-4.6C169,295.1,170.6,296.6,171.2,298.6z
				"/>
			<path class="st11" d="M31.6,372c-0.7,1.4,1.1,1.7,1.2,3.3c-1.6-0.9-3-1.7-4.4-2.4c-1-0.5-1.9-1.6-3.2-0.6
				c-1.4-2.4-2.8-4.7-3.1-7.5c-0.7-2.1,0.5-2.1,1.7-1.3c1.3,0.8,2.5,1.5,4,1.2C28.3,367.5,30.6,369.4,31.6,372z"/>
			<path class="st12" d="M156.6,385c-0.7-2.4-3.3-2.3-4.8-3.6l8.3-5.2c1.3,1.3,3.7,1.7,3.8,4.2C161.7,382.2,159.5,384.1,156.6,385z"
				/>
			<path class="st13" d="M167,330.8l-3.1-4.2c0.3-2.5,2.2-3.2,4.2-3.8c2.6,2.8,4.7,6,6.2,9.4c-0.7,1.5-1.8,0.9-2.8,0.5
				C170,332.1,168.5,331.3,167,330.8z"/>
			<path class="st14" d="M27.9,364.6c-1.5,1.9-2.6,0.4-3.9-0.5c-0.8-0.6-1.9-1.7-1.9,0.5c-0.8-2.1-1.2-4.4-1.1-6.7
				c-0.3-2.8-0.2-2.9,3.5-2.9c1.5,0,2.1,0.8,2,2.3c-0.2,0.9-0.1,1.7,0.2,2.5L27.9,364.6z"/>
			<path class="st15" d="M129.9,389.7l10.7,0.1c-1.2,0.4-2.4,0.5-3.6,0.3c-27.3,0-54.5,0-81.8,0c-1.3,0-2.6,0.2-3.9-0.3l14.8-0.1
				c1.6-1.1,3.3-0.6,5-0.6c2-0.1,4,0,6-0.1c5.8-0.3,11.4,0.7,17.2,0.7c3.9,0,7.9,0,11.8,0.1c0.7,0,1.4,0.1,1.9-0.5
				C115.3,389.7,122.6,389.9,129.9,389.7z"/>
			<path class="st16" d="M177.1,358c-0.3,2.3-0.7,4.6-2.2,6.6c-2-0.3-4.1-0.2-4.9-2.7c1.2-3.5,2-7.2,2.3-10.9c0.9,0,1,0.7,1,1.2
				c-0.1,2.2,1.1,3.5,3,4.2c0.6,0.1,0.9,0.7,0.8,1.2C177.2,357.8,177.2,357.9,177.1,358z"/>
			<path class="st17" d="M156,313.4c4.3,1.8,8.2,4.7,11.1,8.3c0.5,2.2-1.6,2.3-2.7,3.2c-0.8,0.6-1.5-0.5-2-1.1
				c-2.2-2.6-4.3-5.4-6.6-8C154.6,314.3,154.7,313.9,156,313.4z"/>
			<path class="st18" d="M64.1,270.4c-1.5,1-2.6-0.2-3.7-0.9c-1.1-0.7-2.1-1.2-3.2,0c-0.7-1-1.3-2-1.9-3.1c-0.7-1.4-0.2-3.1,1.2-3.8
				c0,0,0,0,0,0c1.6-0.9,2.9-0.3,3.8,1C61.7,265.9,62.8,268.2,64.1,270.4z"/>
			<path class="st19" d="M135.6,268.3c0.9-1.6,1.7-3.2,2.7-4.7c0.9-1.3,2.3-2,3.8-1c1.4,0.7,1.9,2.4,1.2,3.8c0,0.1-0.1,0.2-0.2,0.3
				c-0.9,1.5-1.7,3-2.6,4.4C138.3,271.1,136.8,270,135.6,268.3z"/>
			<path class="st20" d="M135.6,268.3l4.9,2.8c-1.2,2.1-2.1,4.4-3.6,6.3c-2.1,0.2-4-0.9-4.9-2.8L135.6,268.3z"/>
			<path class="st21" d="M96.4,265.8c1.3-2.3,0-4.9,0.8-7.5c1.2,0.3,1.9,1.8,3.1,1.5c1.6-0.3,0.4-2,1.4-3.3v9.2
				c-0.2,0.3-0.3,0.6-0.3,1c-0.2,2.1-0.7,2.4-2.6,1.6c-0.4-0.2-0.6-0.6-1.1-0.6c-0.3,1.4,0.4,3-0.8,4.2
				C95.7,270,96.5,267.9,96.4,265.8z"/>
			<path class="st22" d="M159,299.1c1,2.1,3,2.8,4.9,3.7c-1.7,1.1-3.5,2.2-5.3,3.2c-1.6,0.8-3.2,1.1-4.3-0.9
				c-0.9-1.7-0.3-3.2,1.2-4.3C156.7,300.2,157.9,299.7,159,299.1z"/>
			<path class="st3" d="M163.9,380.3c-0.6-2-3.4-2-3.8-4.2l4.9-5.2c1.3,1.4,3.3,2,4.3,3.7C167.8,376.8,166,378.7,163.9,380.3z"/>
			<path class="st23" d="M175.9,336.4c2.3,6,2.8,12.6,1.7,19c-1.2-1.1-0.8-2.6-0.9-3.9c0-1.8,0.1-3.7,0-5.5c-0.5-1.7-2.2-2-3.4-2.7
				c-0.7,0.7-0.2,1.8-1.1,2.3l-1.5-6.9c-0.6-1.5-0.1-2,1.3-1.4S174.8,337.7,175.9,336.4z"/>
			<path class="st24" d="M175.9,336.4c-0.4,2.1-1.5,2.6-3.4,1.5c-0.3-0.2-2-1.6-1.8,0.6c-1.2-2.6-2.5-5.2-3.7-7.8
				c1.7-0.6,2.8,0.6,4.2,1.2c1,0.4,2,1.2,3.1,0.3C175.1,333.5,175.6,334.9,175.9,336.4z"/>
			<path class="st25" d="M177.5,344.8c0,3.5,0.1,7.1,0.1,10.6c0.1,0.9-0.1,1.8-0.5,2.6c0-0.2,0-0.5-0.1-0.5c-3.2-1-4.5-3.3-4.6-6.5
				v-0.6c0.3-1.7,0.3-3.7,3-2.4c0.9,0.4,0.8-0.6,0.9-1.2C176.6,346.2,176.1,345,177.5,344.8z"/>
			<path class="st26" d="M58.7,302.2c3.7-4.7,8.3-8.6,13.6-11.4c1.3-0.5,1.5,0.1,1,1.1c-0.6,0.9-1.2,1.7-2,2.3
				c-2.2,2.2-4.6,4.2-7.1,6c-1.1,1-2.4,1.8-3.7,2.5C59.6,303.3,59.6,303.2,58.7,302.2z"/>
			<path class="st27" d="M131.9,274.6c1.5,1.2,3.1,2.2,4.9,2.8c-0.6,1.1-1.1,2.3-1.8,3.4c-0.9,1.4-2.3,2-3.8,1.1
				c-1.5-0.9-2.2-2.2-1.2-4C130.6,276.8,131.3,275.7,131.9,274.6z"/>
			<path class="st28" d="M156,313.4c-1.3,0.9-0.2,1.4,0.3,1.9c2,2.4,4,4.7,6,7.1c2.2,2.6,3.2,2.5,4.8-0.8c0.5,0.2,0.9,0.6,1,1.1
				c-1.4,1.2-3.3,2-4.2,3.8l-5.7-5.2c-1.6-3.1-4.1-5.5-6.1-8.2c-0.7-0.9-1.5-1.7,0.6-1.4C153.6,312.7,155.2,312.1,156,313.4z"/>
			<path class="st29" d="M169.2,374.7c-1.5-1.1-3.9-1.3-4.3-3.7l3-4.8c1.7,1,3.1,2.4,4.4,3.9C171.4,371.6,170.8,373.4,169.2,374.7z"
				/>
			<path class="st30" d="M80.1,287.2c1.5-0.8,3.1-1.3,4.7-1.6c1.4-0.3,1.7,0.3,0.7,1.2c-2.3,2.1-4.4,4.4-6.3,6.8l-6.3,3.6
				c-1.4-1-0.2-1.7,0.3-2.4c1.6-1.9,3.3-3.6,5.1-5.2C79,288.9,80.2,288.5,80.1,287.2z"/>
			<path class="st31" d="M172.4,370c-1.9-0.7-3.5-2.1-4.4-3.9c0.7-1.4,1.4-2.8,2.1-4.2c1.2,1.6,3.2,1.7,4.9,2.7
				C174.2,366.5,173.9,368.6,172.4,370z"/>
			<path class="st32" d="M21.1,352.4c0-2.1,0.4-4.2,1.1-6.1c2.1,1.7,3.7,4,4.4,6.6c0.5,1.7-0.1,2.9-2.2,2.5h-0.8
				C20.7,355.5,20.7,355.5,21.1,352.4z"/>
			<path class="st33" d="M64.2,304.5l-3.8,4.7c-2.9,1.1-4.6,3.9-7.3,5.3c-0.5,0.3-0.9,0.9-1.5,0.9c-1,0.1-1-0.4-0.6-1.1
				c0.1-0.8,0.5-1.6,1-2.1c2.7-2.6,5.6-5.1,8.6-7.3c0.8-0.5,1.4-1.3,2.4-1.3C63.6,303.7,64,304,64.2,304.5z"/>
			<path class="st34" d="M177.5,344.8c-0.6,0.5-0.5,1.3-0.5,1.9c0,2.1,0.1,3.6-2.7,1.7c-2-1.3-0.9,1.6-1.9,2l-0.2-5
				c0.2-3.6,0.3-3.7,3.5-1.7C176.3,344.1,177.2,344.1,177.5,344.8z"/>
			<path class="st35" d="M86.5,290.9c-0.4,0.4-1,0.5-1.6,0.4c-1.3-0.4-1.3-1.1-0.6-2c0.4-0.5,0.8-0.9,1.2-1.3
				c0.8-0.9,1.7-1.7,2.7-2.3c0.4,0.1,0-0.5,0-0.2c0,0.1-0.1,0.1-0.2,0.1c-0.4,0-0.9-0.2-1.1-0.5c2-0.8,4.1-1.1,6.2-1.1
				c0.6-0.2,1.2-0.5,1.7,0.1c0.3,0.3,0,0.7-0.3,0.9C92,287.1,89.8,289.8,86.5,290.9z"/>
			<path class="st36" d="M64.2,304.5L63,304c-0.4-0.7-0.1-1.4,0.1-2.2c0.3-0.6,0.7-1,1.2-1.4c2.3-1.6,4.4-3.4,6.6-5.2
				c0.8-0.3,1.7-0.8,2.5-0.1c-0.3,0.7-1.2,1.2-0.5,2.1C69.9,299.4,66.9,301.9,64.2,304.5z"/>
			<path class="st37" d="M86.9,285.1h2.3c-1.5,1.6-2.8,3-4.2,4.3c-0.7,0.7-1.2,1.2-0.2,2l-5.7,2.2c1-3.2,3.6-5.1,5.9-7.2
				c0.9-0.8,0.1-0.6-0.3-0.8C85.4,285.1,86.2,285,86.9,285.1z"/>
			<path class="st38" d="M128.4,292.5c1.5,0.4,2.8,1.3,3.7,2.6c-0.7,2-2.6,3.3-4.7,3.1l-4.2-2.6
				C124.9,294.6,126.4,293.2,128.4,292.5z"/>
			<path class="st39" d="M171.2,298.6l-4.2-4.1c0.7-0.4,1.3-0.8,2-1.2c1.7-1.2,3.3-1.2,4.5,0.7c1.1,1.9,0.3,3.2-1.3,4.2
				C171.9,298.3,171.6,298.5,171.2,298.6z"/>
			<path class="st40" d="M97,272v-5.5c2,1.4,4,3.1,4.7-0.7c0,2,0,3.9,0.1,5.9C100.2,273.8,98.9,273.9,97,272z"/>
			<path class="st41" d="M50.9,314.4c0.1,0.6,0.3,1.1,0.9,0.5c1.9-1.9,4.5-2.9,6.1-5.1c0.6-0.9,1.4-1.3,2.4-0.5l-2.6,4.2
				c-2,0.7-3.3,2.2-4.7,3.6c-0.8,0.8-1.7,1.5-2.6,2.1c-0.5,0.3-1.2,0.6-1.1-0.6C49.5,316.9,50.1,315.6,50.9,314.4z"/>
			<path class="st42" d="M53,348.9c1.3,3.5,0.8,4.8-2.5,6.4c-0.6,0.3-1,0.2-1.2-0.3c-0.6-0.8-1-1.9-1-2.9
				C49.5,349.3,50.7,348.5,53,348.9z"/>
			<path class="st43" d="M152.6,311.7c-0.3,0.2-1.2-0.1-0.4,0.8c1.8,2,3.6,4.1,5.2,6.3c0.5,0.7,1.5,1.4,0.7,2.5l-4.2-2.6
				c-1.2-2.4-3.4-4.2-4.7-6.5c-0.4-0.7-1.5-2,0.7-1.5C150.9,310.8,151.9,311.1,152.6,311.7z"/>
			<path class="st44" d="M86.5,290.9l8.2-6.7l-1.5-0.2c1.6-0.8,3.2-0.4,4.8-0.4c0.2,0.4,0.1,0.9-0.3,1.2c-2.1,1.6-3.4,4.1-6,5
				L86.5,290.9z"/>
			<path class="st45" d="M91.8,289.8l6.3-6.2h3.7c0.6,0.9,0.1,1.5-0.5,2c-1.9,1.5-3.5,3.7-6.3,3.8C93.9,290,92.8,289.7,91.8,289.8z"
				/>
			<path class="st46" d="M47.3,348.4l-0.5-2.6c0.4-1.3,1.5-1.9,2.4-2.6c1.2-0.7,1.8-2,1.6-3.3c0-0.5,0-1,0-1.6c0-0.7,0-1.4,0-2.1
				c0.2-1.1-0.4-2.5,1.2-3v10c0.5,3.1-0.7,5-3.4,5.8C48.1,349.1,47.5,348.9,47.3,348.4z"/>
			<path class="st47" d="M130.9,309.6c3.6-1.6,7.4-1.2,11.1-0.5c-0.1,0.2-0.4,0.4-0.6,0.5c-0.5,0.2-1.1,0.2-1.6,0.2
				c-0.9,0-1.8,0-2.7,0c-0.6-0.1-1.2,0-1.5-0.5c0.8,2,2.9,3.1,3.8,5.1h-3.1C133.7,313.9,131.7,312.1,130.9,309.6z"/>
			<path class="st48" d="M49.3,318.4c1.9,0.3,2.5-1.5,3.7-2.4c1.1-0.9,2.1-1.8,3.1-2.8c0.6-0.6,1.1-0.1,1.7,0.1l-2.1,4.2
				c-2.2,1.2-4.2,2.6-6.1,4.2c-0.8,0.6-1.6,1.3-1.2-0.6C48.3,320.2,48.6,319.2,49.3,318.4z"/>
			<path class="st49" d="M64.6,300.8l-1,1c-1.9,3-5,4.6-7.8,6.6c-0.7,0.5-1.7,0.6-1.1-0.9c1.1-2,2.5-3.8,4.1-5.4
				c0.9,1.3,1.5-0.1,2.1-0.4c1.1-0.6,2.2-1.4,3.2-2.1C64.4,300,64.6,300.4,64.6,300.8z"/>
			<path class="st50" d="M128.4,292.5c-1.5,1.4-2.9,3.1-5.2,3.1l-2.6-1.6c1.2-1.6,2.9-2.9,4.7-3.6
				C126.6,290.5,127.4,291.6,128.4,292.5z"/>
			<path class="st51" d="M54.6,307.6c0.1,0.7,0.3,0.9,0.9,0.4c2.6-2.1,5.3-4.1,8-6.1c0,0.7-0.1,1.5-0.5,2.1c-3.5,2.5-6.9,5.2-10,8.1
				c-0.3,0.3-0.6,0.7-1,0.1C52.3,310.4,53.6,309.1,54.6,307.6z"/>
			<path class="st52" d="M24.8,355.2c2.5-0.3,1.7-1.8,1-3.1c-1.2-1.9-2.7-3.7-3.6-5.8c0-0.6,0.1-1.1,0.5-1.6c2,0.6,4,3.5,4.2,5.8
				l-0.1,9.3c-0.9-0.8-0.5-1.7-0.5-2.7c0-1.1-0.5-1.6-1.6-1.5c-0.2-0.1-0.2-0.2-0.2-0.3C24.7,355.3,24.7,355.2,24.8,355.2z"/>
			<path class="st53" d="M51.4,336.4v2.1c-1.6,1.4-2.6,3.5-5.2,3.2c-0.8-3.4-0.8-7,0-10.5l0.3,0.2c0.2,0.5,0.4,1,0.3,1.5
				c0,0.5,0,1,0,1.5c0,0.5,0,1.2,0,1.9c0,0.5,0,1.1,0.1,1.6C48.5,337.5,49.5,335.2,51.4,336.4z"/>
			<path class="st54" d="M47.3,348.4c2.8-0.1,4.7-2.2,4.7-5.2c0.9,1.8,0.4,3.9,1,5.8c-2.3-0.1-3.2,1.9-4.7,3.2
				C47.7,351,47.3,349.7,47.3,348.4z"/>
			<path class="st55" d="M48.3,321.2c0.1,0.3,0,1.1,0.6,0.3c1.4-1.7,3.6-2.3,5-4.1c0.5-0.6,1.1-0.2,1.6,0.1
				c-0.1,0.8-0.4,1.5-0.9,2.1c-1.5,2.2-4.1,3.1-6,4.9c-0.2,0.2-0.6,0.5-0.9,0.2c-0.6-0.5-0.3-1.1-0.1-1.7
				C47.7,322.4,47.9,321.7,48.3,321.2z"/>
			<path class="st56" d="M103.2,289.3l-5.2-0.1c0-1,0.8-0.9,1.4-1.1c0.5,0,1,0,1.6,0c3,0.5,4.5-2,6.8-3.4c0.2,0-0.1-0.2-0.2-0.1
				c-0.7,0.4-1.3,0.5-1.3-0.6c2.1-0.4,3.7,1.4,5.7,1.1C109.5,287.4,107.3,290.4,103.2,289.3z"/>
			<path class="st57" d="M51.4,336.4c-2.1,0-3.3,1.8-5.2,3.1v-3.1c0.7-1.4,2-2.1,3.1-3c0.9-0.6,1.5-1.4,1.7-2.5c0.2-0.5,0.4-1,1-0.8
				c0,1,0,2.1-0.1,3.1C51.1,334.2,51.6,335.3,51.4,336.4z"/>
			<path class="st58" d="M139.9,309.2h1.6c1.9,0.6,3.5,1.9,4.5,3.6c0.6,0.9,1.1,1.8,0.1,2.8l-2.6-0.6c-0.6-0.6-1.5-0.1-2.1-0.5
				c0.4-0.6,0.3-1.4-0.1-2C140.7,311.5,139.4,310.7,139.9,309.2z"/>
			<path class="st59" d="M149.9,310.7c-1,0.1-0.9,0.5-0.3,1.1c1.3,1.6,2.5,3.3,3.9,4.9c0.5,0.6,1.1,1.2,0.5,2l-3.1-1.6
				c-0.7-2.2-2.6-3.6-4.1-5.2c-0.4-0.5-0.9-1-0.5-1.6s1.1-0.4,1.6-0.1C148.6,310.1,149.3,310.3,149.9,310.7z"/>
			<path class="st60" d="M128.9,315.5l-3.7,1c-1.9-0.8-3.4-2.3-4.2-4.2c1.1-0.8,2.3-1.4,3.7-1.5
				C125.6,312.7,127.1,314.4,128.9,315.5z"/>
			<path class="st61" d="M73.4,295.1l-2.6,0.5c-0.1-0.4,0-0.7,0.3-1c2.2-2.1,4.4-4.2,6.5-6.4l2.5-1.1c0.8,0.2,1.5,0.3,0.4,1.2
				C78.1,290.6,75.8,292.8,73.4,295.1z"/>
			<path class="st62" d="M114.7,322.8c-0.6,0.8-1.7,1.1-2.1,2.1c-2.2-0.3-3.9-2-4.2-4.2c0.6-1,1.3-1.9,2.6-2.1
				C112,320.2,113.2,321.7,114.7,322.8z"/>
			<path class="st63" d="M108.5,320.7c1.2,1.6,2.3,3.2,4.2,4.2c-0.4,1-1.5,1.3-2.1,2.1c-2.2-0.5-3.2-2.1-3.7-4.2
				C107,321.8,107.6,321,108.5,320.7z"/>
			<path class="st64" d="M99.6,288.8c-0.6,0-1.2-0.1-1.6,0.5l-3.1,0.1c2.8-1.2,5.1-3.2,6.8-5.8c1.4-0.2,2.8,0,4.2,0.4
				c0.1,0.1,0.2,0.3,0.2,0.4c0,0.2-0.1,0.2-0.1,0.2C103.3,285.3,101.8,287.5,99.6,288.8z"/>
			<path class="st65" d="M130.9,309.6c1.9,1.5,3,3.8,5.2,4.8h-1.5c-2.1,0.6-3.9,0.4-4.9-1.9c-0.4-1-1.9-1-1.9-2.2
				C128.8,309.5,129.9,309.8,130.9,309.6z"/>
			<path class="st66" d="M77.6,288.2c0.3,0.1,1.1,0.3,0.6,0.6c-2.6,1.7-4.3,4.4-6.8,6.2c-0.4-0.2-0.8-0.5-0.5-1
				c0.7-0.8,1.4-1.5,2-2.3c0.6-0.8,0-0.8-0.5-0.9C73.9,289.7,75.7,288.8,77.6,288.2z"/>
			<path class="st67" d="M128.9,315.5c-2.4-0.3-4.2-2.3-4.2-4.7l1.6-0.5c2.1,1,3,3.3,4.7,4.7C130.5,315.6,129.7,315.4,128.9,315.5z"
				/>
			<path class="st68" d="M103.2,289.3c1.8,0.2,3.6-0.4,4.8-1.7c1.1-1.1,2.7-1.6,4.1-2.4c0.8,0,1.5,0,1.7,1c-2,1.4-3.5,3.9-6.4,3.7
				C106,289.7,104.5,290.2,103.2,289.3z"/>
			<path class="st69" d="M146.1,315.6c0.1-3.3-2.8-4.5-4.6-6.4l0.6-0.1c0.7-0.1,1.5,0.2,2,0.7c2.8,1.2,4.7,3.8,5.2,6.8
				C148.2,316.4,147.1,316.1,146.1,315.6z"/>
			<path class="st70" d="M141.5,314.4c0.7,0.1,1.6-0.2,2.1,0.6c-1.4,0.1-2.8-0.1-4.2-0.5c-2.1-1.1-3.2-3-4.4-4.9
				c0.6-0.5,1.2-0.3,1.7-0.3C138.6,310.7,140.8,311.8,141.5,314.4z"/>
			<path class="st71" d="M119.5,319.2c-0.3,0.6-0.9,1-1.6,1c-2.6,0.2-3.2-2-4.2-3.7c0.4-0.9,1.3-1.2,2.1-1.5
				C117.6,315.9,119.1,317.1,119.5,319.2z"/>
			<path class="st72" d="M47.7,323.1l0.2,1.3c2.1-1.9,4.4-3.5,6.8-4.8c-0.2,1.1-0.5,2.2-1.1,3.1c-1.9,0.9-3.3,2.3-5,3.6
				c-0.4,0.3-0.9,0.9-1.3,0.5c-0.4-0.3-0.3-1.1-0.1-1.6C47.1,324.5,47.3,323.8,47.7,323.1z"/>
			<path class="st73" d="M26.9,350.6c-1.4-2-2.3-4.3-4.2-5.8c0.1-1,0.4-1.9,1-2.6c2,1.7,3.6,3.6,3.7,6.4
				C27.5,349.3,27.4,350,26.9,350.6z"/>
			<path class="st74" d="M53.5,323.3c-0.1,1.3-0.4,2.5-1,3.6c-2.1,1.3-3.6,3.6-6.2,4.1l-0.2,0.1c0.2-1.1-0.2-2.2,0.6-3.2
				c2.1-1,3.6-2.9,5.5-4.1C52.7,323.6,52.9,323.1,53.5,323.3z"/>
			<path class="st75" d="M53.5,323.3c-1.6,2.4-4.7,3.1-6.4,5.6c-0.3,0.4-0.2-0.7-0.4-1c-0.1-0.9,0-1.8,0.5-2.6
				c0.4,0.1-0.6,1.9,0.8,0.7c1.2-1,2.5-1.9,3.7-2.9c0.6-0.5,1.1-0.8,1.9-0.3C53.6,323,53.6,323.2,53.5,323.3z"/>
			<path class="st76" d="M125.2,290.4c-1.3,1.5-2.9,2.8-4.7,3.7c-1-0.1-1.9-0.5-2.6-1.1c1.7-1.2,3.3-2.7,5.2-3.7
				C123.9,289.4,124.7,289.8,125.2,290.4z"/>
			<path class="st77" d="M113.7,316.5c1.7,0.9,2.3,3.1,4.2,3.7c-0.4,0.9-1.4,1.1-2.1,1.6c-1.9-0.8-3.5-1.9-3.7-4.2
				C112.4,316.9,113,316.5,113.7,316.5z"/>
			<path class="st78" d="M131,315c-2.6-0.5-3.2-3.1-4.7-4.7h1.6c0.9,0.6,2.3,0.6,2.6,1.9c0.6,2.4,2.4,2.4,4.2,2.3
				C133.6,315.2,132.3,314.8,131,315z"/>
			<path class="st79" d="M149.3,316.5c-1.4-2.5-2.9-5-5.2-6.8c1.3-0.1,2.6-0.4,3.7,0.4c-1,0-1.9,0-0.7,1.3c1.2,1.1,2.3,2.3,3.3,3.6
				c0.4,0.7,1,1.2,0.4,2.1L149.3,316.5z"/>
			<path class="st80" d="M51.5,340c0.5,1.9-0.7,2.8-2,3.8c-0.9,0.7-1.8,1.3-2.7,2c-0.4-0.6-0.6-1.4-0.5-2.1
				C47.5,341.7,48.9,340.1,51.5,340z"/>
			<path class="st81" d="M30.4,332.1c0.2-0.9,1-1.1,1.6-1.6c1.9,1,3,3.1,2.6,5.2c-0.2,0.5-0.6,0.9-1.1,1
				C31.5,336,31,334.1,30.4,332.1z"/>
			<path class="st82" d="M29.6,342.8c-0.1,0.9-0.5,1.8-1.1,2.6c-1.4-2-3.1-3.8-3.2-6.4c0.1-0.7,0.4-1.2,0.9-1.6
				C28.4,338.5,29.1,340.6,29.6,342.8z"/>
			<path class="st83" d="M112.2,317.6c0.9,1.7,2.6,2.6,3.7,4.2l-1.1,1c-2.5-0.3-3.3-2-3.6-4.2L112.2,317.6z"/>
			<path class="st84" d="M121,312.3c1.6,1.2,3,2.6,4.2,4.2c-0.8,0.6-1.7,0.9-2.6,1c-1.7-1-2.7-2.8-2.7-4.8
				C120.2,312.4,120.6,312.3,121,312.3z"/>
			<path class="st85" d="M105.9,284.6V284c0.2,0,0.4,0,0.5,0c0.3,0.8,1.3,0.2,1.8,1c-2.2,1.5-3.8,4.2-7.1,3.7
				c-0.6-0.9,0.1-1.2,0.6-1.6C103,286.2,104.4,285.3,105.9,284.6z"/>
			<path class="st86" d="M115.3,286.2c0.9-0.2,1.8,0.2,2.1,1c-1.3,1.2-2.9,2-4,3.5c-0.2,0.4-0.8,0.5-1.2,0.3c0,0-0.1-0.1-0.1-0.1
				c-0.7-0.1-1.5,0.2-2.1-0.5C110.7,287.7,113.2,287.1,115.3,286.2z"/>
			<path class="st87" d="M34.7,335.8c-0.3-2-1.7-3.5-2.6-5.2c0.4-0.7,0.9-1.2,1.6-1.5c1.8,1.1,2.8,3.1,2.6,5.2
				C36,335,35.4,335.5,34.7,335.8z"/>
			<path class="st88" d="M120,312.8l2.7,4.8c-0.2,0.4-0.6,0.6-1,0.5c-2-0.2-3.1-1.4-3.7-4.2C118.4,313.3,119.2,312.9,120,312.8z"/>
			<path class="st89" d="M117.9,313.8c1.5,1.2,1.5,3.7,3.7,4.2l-2.1,1.1l-3.7-4.2C116.5,314.6,117,313.9,117.9,313.8z"/>
			<path class="st90" d="M46.3,331.1c2.1-1.3,3.4-3.8,6.2-4.1c0.1,0.9-0.1,1.8-0.5,2.6c-1.3,0.4-2.2,1.3-3.3,2
				c-0.8,0.5-1.3,1.4-2.5,1.1L46.3,331.1z"/>
			<path class="st91" d="M25.3,339c0.9,2.2,2.9,3.9,3.2,6.4c-0.2,0.4-0.3,0.8-0.5,1.2c-1.7-1.5-3.2-3.1-3.8-5.4
				C24.3,340.3,24.7,339.5,25.3,339z"/>
			<path class="st92" d="M34.2,328.5l1.6-1.1c2.2,0.1,3.4,2.1,3.2,4.7l-1.6,1.1C36.1,331.8,35.1,330.2,34.2,328.5z"/>
			<path class="st93" d="M120,287.8l2.1,1c-1.3,1.9-2.9,3.4-5.2,3.7c-0.6,0-1.2,0.1-1.6-0.5C116,289.5,118.4,289.1,120,287.8z"/>
			<path class="st94" d="M24.2,341c1.2,1.9,3.1,3.2,3.8,5.4c0.1,0.7-0.1,1.4-0.6,2l-3.7-6.4C23.7,341.7,23.9,341.3,24.2,341z"/>
			<path class="st95" d="M38.9,332.2c-0.8-1.7-1-3.9-3.2-4.7l1.6-1c2.2,0.7,3.2,2.3,3.1,4.7L38.9,332.2z"/>
			<path class="st96" d="M112.1,290.9c1.3-0.6,1.7-2.1,3-2.8c0.7-0.5,1.5-0.8,2.3-0.9l1,0.1c-0.4,2.4-3,2.9-4.2,4.6L112.1,290.9z"/>
			<path class="st97" d="M116.8,292.5l5.2-3.7c0.4,0,0.8,0.2,1,0.5c-1.4,1.7-2.9,3.4-5.2,3.7C117.5,293,117.1,292.8,116.8,292.5z"/>
			<path class="st98" d="M115.3,286.2c-1.6,1.6-3.8,2.4-5.2,4.2c-0.9-0.1-1.9,0.2-2.6-0.5c1.6-0.4,2.8-1.5,4-2.6
				c0.7-0.6,1.6-1,2.5-1.2L115.3,286.2z"/>
			<path class="st99" d="M31.1,340.1c-0.1,0.4-0.1,0.8-0.6,0.9c-2.3-0.6-3-2.6-3.6-4.6c0.3-0.6,0.4-1.2,1-1.6
				C29.8,335.9,31,337.9,31.1,340.1z"/>
			<path class="st100" d="M114.2,291.9c0.4-2.4,3.1-2.7,4.2-4.6l1.6,0.5c-0.9,2.1-3.4,2.5-4.7,4.2L114.2,291.9z"/>
			<path class="st101" d="M46.3,332.7l3.4-2.6c0.7-0.5,1.4-1,2.3-0.5c0,0.2,0,0.3,0,0.5c-0.4,0.2-0.6,0.6-0.5,1
				c-1.7,1.1-2.8,3.3-5.2,3.1L46.3,332.7z"/>
			<path class="st102" d="M34.2,328.5c1.7,1,2.8,2.8,3.1,4.7l-1.1,1l-2.6-5.2L34.2,328.5z"/>
			<path class="st103" d="M40.5,331.2c-0.8-1.7-1.4-3.6-3.1-4.7c0.7-0.5,1.6-1.7,2.2-0.2C40.1,327.7,43,329,40.5,331.2z"/>
			<path class="st104" d="M51.5,340c-2,0.9-3.5,2.3-5.2,3.6c0-0.7,0-1.4-0.1-2.1c2.1-0.5,3.2-2.7,5.2-3.2
				C51.5,339,51.5,339.5,51.5,340z"/>
			<path class="st105" d="M127.3,298.2c1.8-0.6,3.4-1.7,4.7-3.1c0.3,0.3,0.9,0.6,0.8,0.9C132.6,297.7,128.9,299.2,127.3,298.2z"/>
			<path class="st106" d="M26.9,336.4c1.2,1.5,2,3.3,3.6,4.6l-0.9,1.8l-3.4-5.4C26.4,337,26.7,336.7,26.9,336.4z"/>
			<path class="st107" d="M31.1,340.1l-3.2-5.3c0.3-0.4,0.7-0.7,1-1.1c1.7,1.5,3.3,3.1,2.6,5.8L31.1,340.1z"/>
			<path class="st108" d="M30.4,332.1l3.2,4.7l-1,1.2c-1.9-1-2.4-3.1-3.3-4.8L30.4,332.1z"/>
			<path class="st109" d="M106.9,322.8c1.3,1.3,2.1,3.1,3.7,4.2c-1.9,1.2-2.5-0.7-3.3-1.6C106.9,324.8,105,323.9,106.9,322.8z"/>
			<path class="st110" d="M29.4,333.2c1.5,1.3,2.1,3.3,3.3,4.8l-1.1,1.5c0.1-2.4-2.2-3.6-2.6-5.8L29.4,333.2z"/>
			<path class="st111" d="M24.8,355.2v0.5c-1.6,0.2-3.9-0.9-3.7,2.2c-0.5-1.8-0.5-3.7,0-5.5C20.6,355.6,22.8,355.4,24.8,355.2z"/>
			<path class="st112" d="M94.3,389.7H77.1c-2.7-0.4-5.5-0.1-8.2-0.2c-0.9-0.1-1.9,0.2-2.8-0.2h-0.5c-0.6-0.6-1.6-0.8-2.1-1.4
				c-1.4-1.7-3.4-2.1-5.5-2.1c-1.1,0-2.6,0.6-3.3-1.1c8.7-0.3,17.3,0.1,25.9,0.4c0.8,0,1.5,0.3,2,0.9c2.1,2.3,4.6,3.8,8,3.3
				C91.7,389.1,93.1,388.8,94.3,389.7z"/>
			<path class="st113" d="M54.7,384.6c1.1,0.9,2.4,0.5,3.5,0.4c3.7-0.5,5.6,1.7,7.5,4.2c-1.8-0.1-3.6-0.1-5.5,0.1
				c-3.8,0.7-6.3-1.6-8.9-3.7c0.6-1,1.8-0.1,2.3-1L54.7,384.6z"/>
			<path class="st113" d="M66.1,389.2c3.6,0.3,7.3-0.5,10.9,0.5H66.1V389.2z"/>
			<path class="st15" d="M95.9,385c4.1-0.8,7,1.3,9.4,4.2C101.3,389.8,98.3,388,95.9,385z"/>
			<path class="st114" d="M70.8,294l0.5,1l-0.5,0.5c-1.6,2.4-4.1,3.6-6.3,5.2c-0.4-0.2-0.6-0.6-0.5-1L70.8,294z"/>
			<path class="st115" d="M141.5,314.4c-1.5-1.8-3.5-3.2-4.7-5.2h3.1l1.5,2.3C142,312.5,142.6,313.4,141.5,314.4z"/>
			<path class="st116" d="M46.2,334.3c2-0.6,3-3,5.2-3.1c0.2,2.3-2.1,2.5-3.1,3.8c-0.6,0.6-1.3,1.1-2.1,1.4L46.2,334.3z"/>
			<path class="st117" d="M105.9,284.6c-0.7,1.4-2.2,1.9-3.4,2.7c-0.6,0.4-1.3,0.6-1.3,1.5h-1.6
				C101.3,286.8,102.6,284.3,105.9,284.6z"/>
		</g>
	</g>
</g>
</svg>
